# xmcd
#
# Track frame offsets:
#	150
#	13843
#	32760
#	59493
#	84980
#	102935
#	111613
#	129298
#	149760
#	163335
#
# Disc length: 2368 seconds
#
# Revision: 2
# Processed by: cddbd v1.5PL3 Copyright (c) Steve Scherf et al.
# Submitted via: audiograbber 1.80
#
DISCID=90093e0a
DTITLE=Wynton Kelly Trio - It's All Right!
DYEAR=1900
DGENRE=
TTITLE0=It's All Right
TTITLE1=South Seas
TTITLE2=Not A Tear
TTITLE3=Portrait Of Jenny
TTITLE4=Kelly Roll
TTITLE5=The Fall Of Love
TTITLE6=Moving Up
TTITLE7=On The Trail
TTITLE8=Escapade
TTITLE9=?
EXTD=
EXTT0=
EXTT1=
EXTT2=
EXTT3=
EXTT4=
EXTT5=
EXTT6=
EXTT7=
EXTT8=
EXTT9=
PLAYORDER=
